<?xml version="1.0" encoding="utf-8"?>
<svg viewBox="0 0 160 160" xmlns="http://www.w3.org/2000/svg">
  <rect width="160" height="160" fill="#002" style=""/>
  <g transform="matrix(0.911613, 0, 0, 0.911613, 50.472641, 3.63194)" style="">
    <circle id="week-1" cx="-32.54" cy="16.55" r="2" fill="#ff7866" transform="matrix(-0.898794, 0.438371, 0.438371, 0.898794, -34.400581, 21.454716)"/>
    <circle id="week-2" cx="-34.98" cy="19" r="2" fill="#ff8966" transform="matrix(-0.898794, 0.438371, 0.438371, 0.898794, -34.400581, 21.454716)"/>
    <circle id="week-3" cx="-37.19" cy="22.5" r="2" fill="#ff9b66" transform="matrix(-0.898794, 0.438371, 0.438371, 0.898794, -34.400581, 21.454716)"/>
    <circle id="week-4" cx="-39.07" cy="26.97" r="2" fill="#ffad66" transform="matrix(-0.898794, 0.438371, 0.438371, 0.898794, -34.400582, 21.454716)"/>
    <circle id="week-5" cx="-40.57" cy="32.32" r="2" fill="#ffbe66" transform="matrix(-0.898794, 0.438371, 0.438371, 0.898794, -34.400582, 21.454716)"/>
    <circle id="week-6" cx="-41.64" cy="38.45" r="2" fill="#ffd066" transform="matrix(-0.898794, 0.438371, 0.438371, 0.898794, -34.400582, 21.454716)"/>
    <circle id="week-7" cx="-42.24" cy="45.25" r="2" fill="#ffe266" transform="matrix(-0.898794, 0.438371, 0.438371, 0.898794, -34.400582, 21.454716)"/>
    <circle id="week-8" cx="-42.36" cy="52.6" r="2" fill="#fff366" transform="matrix(-0.898794, 0.438371, 0.438371, 0.898794, -34.400582, 21.454716)"/>
    <circle id="week-9" cx="-42" cy="60.38" r="2" fill="#f9ff66" transform="matrix(-0.898794, 0.438371, 0.438371, 0.898794, -34.400582, 21.454716)"/>
    <circle id="week-10" cx="-41.17" cy="68.48" r="2" fill="#e7ff66" transform="matrix(-0.898794, 0.438371, 0.438371, 0.898794, -34.400582, 21.454716)"/>
    <circle id="week-11" cx="-39.92" cy="76.76" r="2" fill="#d6ff66" transform="matrix(-0.898794, 0.438371, 0.438371, 0.898794, -34.400582, 21.454716)"/>
    <circle id="week-12" cx="-38.28" cy="85.12" r="2" fill="#c4ff66" transform="matrix(-0.898794, 0.438371, 0.438371, 0.898794, -34.400582, 21.454716)"/>
    <circle id="week-13" cx="-36.33" cy="93.44" r="2" fill="#b3ff66" transform="matrix(-0.898794, 0.438371, 0.438371, 0.898794, -34.400582, 21.454716)"/>
    <circle id="week-14" cx="-34.15" cy="101.62" r="2" fill="#a1ff66" transform="matrix(-0.898794, 0.438371, 0.438371, 0.898794, -34.400582, 21.454715)"/>
    <circle id="week-15" cx="-31.85" cy="109.54" r="2" fill="#8fff66" transform="matrix(-0.898794, 0.438371, 0.438371, 0.898794, -34.400582, 21.454715)"/>
    <circle id="week-16" cx="-29.57" cy="117.11" r="2" fill="#7eff66" transform="matrix(-0.898794, 0.438371, 0.438371, 0.898794, -34.400582, 21.454715)"/>
    <circle id="week-17" cx="-27.46" cy="124.24" r="2" fill="#6cff66" transform="matrix(-0.898794, 0.438371, 0.438371, 0.898794, -34.400582, 21.454715)"/>
    <circle id="week-18" cx="-25.7" cy="130.84" r="2" fill="#66ff72" transform="matrix(-0.898794, 0.438371, 0.438371, 0.898794, -34.400582, 21.454715)"/>
    <circle id="week-19" cx="-24.48" cy="136.83" r="2" fill="#66ff83" transform="matrix(-0.898794, 0.438371, 0.438371, 0.898794, -34.400582, 21.454715)"/>
    <circle id="week-20" cx="-23.99" cy="142.11" r="2" fill="#66ff95" transform="matrix(-0.898794, 0.438371, 0.438371, 0.898794, -34.400582, 21.454715)"/>
    <circle id="week-21" cx="-24.39" cy="146.61" r="2" fill="#66ffa7" transform="matrix(-0.898794, 0.438371, 0.438371, 0.898794, -34.400582, 21.454715)"/>
    <circle id="week-22" cx="-25.74" cy="150.26" r="2" fill="#66ffb8" transform="matrix(-0.898794, 0.438371, 0.438371, 0.898794, -34.400582, 21.454715)"/>
    <circle id="week-23" cx="-28.02" cy="152.99" r="2" fill="#66ffca" transform="matrix(-0.898794, 0.438371, 0.438371, 0.898794, -34.400582, 21.454715)"/>
    <circle id="week-24" cx="-31.04" cy="154.73" r="2" fill="#66ffdc" transform="matrix(-0.898794, 0.438371, 0.438371, 0.898794, -34.400582, 21.454715)"/>
    <circle id="week-25" cx="-34.43" cy="155.46" r="2" fill="#66ffed" transform="matrix(-0.898794, 0.438371, 0.438371, 0.898794, -34.400582, 21.454715)"/>
    <circle id="week-26" cx="-37.77" cy="155.17" r="2" fill="#66ffff" transform="matrix(-0.898794, 0.438371, 0.438371, 0.898794, -34.400582, 21.454715)"/>
    <circle id="week-27" cx="-40.6" cy="153.86" r="2" fill="#66edff" transform="matrix(-0.898794, 0.438371, 0.438371, 0.898794, -34.400582, 21.454715)"/>
    <circle id="week-28" cx="-42.59" cy="151.57" r="2" fill="#66dcff" transform="matrix(-0.898794, 0.438371, 0.438371, 0.898794, -34.400582, 21.454715)"/>
    <circle id="week-29" cx="-43.53" cy="148.37" r="2" fill="#66caff" transform="matrix(-0.898794, 0.438371, 0.438371, 0.898794, -34.400582, 21.454715)"/>
    <circle id="week-30" cx="-43.4" cy="144.32" r="2" fill="#66b8ff" transform="matrix(-0.898794, 0.438371, 0.438371, 0.898794, -34.400582, 21.454715)"/>
    <circle id="week-31" cx="-42.28" cy="139.48" r="2" fill="#66a7ff" transform="matrix(-0.898794, 0.438371, 0.438371, 0.898794, -34.400582, 21.454715)"/>
    <circle id="week-32" cx="-40.36" cy="133.94" r="2" fill="#6695ff" transform="matrix(-0.898794, 0.438371, 0.438371, 0.898794, -34.400582, 21.454715)"/>
    <circle id="week-33" cx="-37.84" cy="127.77" r="2" fill="#6683ff" transform="matrix(-0.898794, 0.438371, 0.438371, 0.898794, -34.400582, 21.454715)"/>
    <circle id="week-34" cx="-34.93" cy="121.04" r="2" fill="#6672ff" transform="matrix(-0.898794, 0.438371, 0.438371, 0.898794, -34.400582, 21.454715)"/>
    <circle id="week-35" cx="-31.82" cy="113.84" r="2" fill="#6c66ff" transform="matrix(-0.898794, 0.438371, 0.438371, 0.898794, -34.400582, 21.454715)"/>
    <circle id="week-36" cx="-28.68" cy="106.25" r="2" fill="#7e66ff" transform="matrix(-0.898794, 0.438371, 0.438371, 0.898794, -34.400582, 21.454715)"/>
    <circle id="week-37" cx="-25.67" cy="98.35" r="2" fill="#8f66ff" transform="matrix(-0.898794, 0.438371, 0.438371, 0.898794, -34.400582, 21.454715)"/>
    <circle id="week-38" cx="-22.88" cy="90.24" r="2" fill="#a166ff" transform="matrix(-0.898794, 0.438371, 0.438371, 0.898794, -34.400582, 21.454716)"/>
    <circle id="week-39" cx="-20.42" cy="82.03" r="2" fill="#b266ff" transform="matrix(-0.898794, 0.438371, 0.438371, 0.898794, -34.400582, 21.454716)"/>
    <circle id="week-40" cx="-18.37" cy="73.81" r="2" fill="#c466ff" transform="matrix(-0.898794, 0.438371, 0.438371, 0.898794, -34.400582, 21.454716)"/>
    <circle id="week-41" cx="-16.77" cy="65.69" r="2" fill="#d666ff" transform="matrix(-0.898794, 0.438371, 0.438371, 0.898794, -34.400581, 21.454716)"/>
    <circle id="week-42" cx="-15.66" cy="57.78" r="2" fill="#e766ff" transform="matrix(-0.898794, 0.438371, 0.438371, 0.898794, -34.400581, 21.454716)"/>
    <circle id="week-43" cx="-15.07" cy="50.22" r="2" fill="#f966ff" transform="matrix(-0.898794, 0.438371, 0.438371, 0.898794, -34.400581, 21.454716)"/>
    <circle id="week-44" cx="-15" cy="43.1" r="2" fill="#ff66f3" transform="matrix(-0.898794, 0.438371, 0.438371, 0.898794, -34.400581, 21.454716)"/>
    <circle id="week-45" cx="-15.46" cy="36.55" r="2" fill="#ff66e2" transform="matrix(-0.898794, 0.438371, 0.438371, 0.898794, -34.400581, 21.454716)"/>
    <circle id="week-46" cx="-16.41" cy="30.69" r="2" fill="#ff66d0" transform="matrix(-0.898794, 0.438371, 0.438371, 0.898794, -34.400581, 21.454716)"/>
    <circle id="week-47" cx="-17.82" cy="25.61" r="2" fill="#ff66be" transform="matrix(-0.898794, 0.438371, 0.438371, 0.898794, -34.400581, 21.454716)"/>
    <circle id="week-48" cx="-19.64" cy="21.43" r="2" fill="#ff66ad" transform="matrix(-0.898794, 0.438371, 0.438371, 0.898794, -34.400581, 21.454716)"/>
    <circle id="week-49" cx="-21.8" cy="18.23" r="2" fill="#ff669b" transform="matrix(-0.898794, 0.438371, 0.438371, 0.898794, -34.400581, 21.454716)"/>
    <circle id="week-50" cx="-24.21" cy="16.07" r="2" fill="#ff6689" transform="matrix(-0.898794, 0.438371, 0.438371, 0.898794, -34.400581, 21.454716)"/>
    <circle id="week-51" cx="-26.79" cy="15" r="2" fill="#ff6678" transform="matrix(-0.898794, 0.438371, 0.438371, 0.898794, -34.400581, 21.454716)"/>
    <circle id="week-52" cx="-29.44" cy="15.05" r="2" fill="#ff6666" transform="matrix(-0.898794, 0.438371, 0.438371, 0.898794, -34.400581, 21.454716)"/>
  </g>
</svg>