<?xml version="1.0" encoding="utf-8"?>
<svg viewBox="0 0 464 464" xmlns="http://www.w3.org/2000/svg">
  <rect width="464" height="464" style="fill-opacity: 1; stroke: none; fill: rgb(255, 255, 255);"/>
  <g id="surface140" transform="matrix(0.838096, 0, 0, 0.838096, 30.149937, 42.490562)" style="">
    <path style="fill-rule: nonzero; fill-opacity: 1; stroke-linecap: round; stroke-linejoin: round; stroke-opacity: 1; stroke-miterlimit: 10; fill: none; stroke-width: 7.15908px; stroke: rgb(38, 50, 56);" d="M 420.65625 81.722656 C 420.65625 85.324219 415.257812 85.324219 415.257812 81.722656 C 415.257812 78.121094 420.65625 78.121094 420.65625 81.722656 "/>
    <path style="fill-rule: nonzero; fill-opacity: 1; stroke-linecap: round; stroke-linejoin: round; stroke-opacity: 1; stroke-miterlimit: 10; fill: none; stroke-width: 7.15908px; stroke: rgb(38, 50, 56);" d="M 422.582031 86.851562 C 422.582031 90.453125 417.179688 90.453125 417.179688 86.851562 C 417.179688 83.25 422.582031 83.25 422.582031 86.851562 "/>
    <path style="fill-rule: nonzero; fill-opacity: 1; stroke-linecap: round; stroke-linejoin: round; stroke-opacity: 1; stroke-miterlimit: 10; fill: none; stroke-width: 7.15908px; stroke: rgb(38, 50, 56);" d="M 420.898438 92.789062 C 420.898438 96.390625 415.496094 96.390625 415.496094 92.789062 C 415.496094 89.191406 420.898438 89.191406 420.898438 92.789062 "/>
    <path style="fill-rule: nonzero; fill-opacity: 1; stroke-linecap: round; stroke-linejoin: round; stroke-opacity: 1; stroke-miterlimit: 10; fill: none; stroke-width: 7.15908px; stroke: rgb(38, 50, 56);" d="M 415.832031 99.453125 C 415.832031 103.054688 410.433594 103.054688 410.433594 99.453125 C 410.433594 95.855469 415.832031 95.855469 415.832031 99.453125 "/>
    <path style="fill-rule: nonzero; fill-opacity: 1; stroke-linecap: round; stroke-linejoin: round; stroke-opacity: 1; stroke-miterlimit: 10; fill: none; stroke-width: 7.15908px; stroke: rgb(38, 50, 56);" d="M 407.695312 106.769531 C 407.695312 110.371094 402.296875 110.371094 402.296875 106.769531 C 402.296875 103.171875 407.695312 103.171875 407.695312 106.769531 "/>
    <path style="fill-rule: nonzero; fill-opacity: 1; stroke-linecap: round; stroke-linejoin: round; stroke-opacity: 1; stroke-miterlimit: 10; fill: none; stroke-width: 7.15908px; stroke: rgb(38, 50, 56);" d="M 396.851562 114.675781 C 396.851562 118.277344 391.449219 118.277344 391.449219 114.675781 C 391.449219 111.078125 396.851562 111.078125 396.851562 114.675781 "/>
    <path style="fill-rule: nonzero; fill-opacity: 1; stroke-linecap: round; stroke-linejoin: round; stroke-opacity: 1; stroke-miterlimit: 10; fill: none; stroke-width: 7.15908px; stroke: rgb(38, 50, 56);" d="M 383.683594 123.121094 C 383.683594 126.722656 378.28125 126.722656 378.28125 123.121094 C 378.28125 119.519531 383.683594 119.519531 383.683594 123.121094 "/>
    <path style="fill-rule: nonzero; fill-opacity: 1; stroke-linecap: round; stroke-linejoin: round; stroke-opacity: 1; stroke-miterlimit: 10; fill: none; stroke-width: 7.15908px; stroke: rgb(38, 50, 56);" d="M 368.589844 132.058594 C 368.589844 135.660156 363.191406 135.660156 363.191406 132.058594 C 363.191406 128.457031 368.589844 128.457031 368.589844 132.058594 "/>
    <path style="fill-rule: nonzero; fill-opacity: 1; stroke-linecap: round; stroke-linejoin: round; stroke-opacity: 1; stroke-miterlimit: 10; fill: none; stroke-width: 7.15908px; stroke: rgb(38, 50, 56);" d="M 351.960938 141.453125 C 351.960938 145.054688 346.5625 145.054688 346.5625 141.453125 C 346.5625 137.851562 351.960938 137.851562 351.960938 141.453125 "/>
    <path style="fill-rule: nonzero; fill-opacity: 1; stroke-linecap: round; stroke-linejoin: round; stroke-opacity: 1; stroke-miterlimit: 10; fill: none; stroke-width: 7.15908px; stroke: rgb(38, 50, 56);" d="M 334.175781 151.269531 C 334.175781 154.867188 328.773438 154.867188 328.773438 151.269531 C 328.773438 147.667969 334.175781 147.667969 334.175781 151.269531 "/>
    <path style="fill-rule: nonzero; fill-opacity: 1; stroke-linecap: round; stroke-linejoin: round; stroke-opacity: 1; stroke-miterlimit: 10; fill: none; stroke-width: 7.15908px; stroke: rgb(38, 50, 56);" d="M 315.578125 161.472656 C 315.578125 165.070312 310.175781 165.070312 310.175781 161.472656 C 310.175781 157.871094 315.578125 157.871094 315.578125 161.472656 "/>
    <path style="fill-rule: nonzero; fill-opacity: 1; stroke-linecap: round; stroke-linejoin: round; stroke-opacity: 1; stroke-miterlimit: 10; fill: none; stroke-width: 7.15908px; stroke: rgb(38, 50, 56);" d="M 296.496094 172.027344 C 296.496094 175.625 291.09375 175.625 291.09375 172.027344 C 291.09375 168.425781 296.496094 168.425781 296.496094 172.027344 "/>
    <path style="fill-rule: nonzero; fill-opacity: 1; stroke-linecap: round; stroke-linejoin: round; stroke-opacity: 1; stroke-miterlimit: 10; fill: none; stroke-width: 7.15908px; stroke: rgb(38, 50, 56);" d="M 277.226562 182.898438 C 277.226562 186.5 271.824219 186.5 271.824219 182.898438 C 271.824219 179.296875 277.226562 179.296875 277.226562 182.898438 "/>
    <path style="fill-rule: nonzero; fill-opacity: 1; stroke-linecap: round; stroke-linejoin: round; stroke-opacity: 1; stroke-miterlimit: 10; fill: none; stroke-width: 7.15908px; stroke: rgb(38, 50, 56);" d="M 258.03125 194.046875 C 258.03125 197.644531 252.632812 197.644531 252.632812 194.046875 C 252.632812 190.445312 258.03125 190.445312 258.03125 194.046875 "/>
    <path style="fill-rule: nonzero; fill-opacity: 1; stroke-linecap: round; stroke-linejoin: round; stroke-opacity: 1; stroke-miterlimit: 10; fill: none; stroke-width: 7.15908px; stroke: rgb(38, 50, 56);" d="M 239.148438 205.425781 C 239.148438 209.023438 233.75 209.023438 233.75 205.425781 C 233.75 201.824219 239.148438 201.824219 239.148438 205.425781 "/>
    <path style="fill-rule: nonzero; fill-opacity: 1; stroke-linecap: round; stroke-linejoin: round; stroke-opacity: 1; stroke-miterlimit: 10; fill: none; stroke-width: 7.15908px; stroke: rgb(38, 50, 56);" d="M 220.785156 216.984375 C 220.785156 220.585938 215.386719 220.585938 215.386719 216.984375 C 215.386719 213.382812 220.785156 213.382812 220.785156 216.984375 "/>
    <path style="fill-rule: nonzero; fill-opacity: 1; stroke-linecap: round; stroke-linejoin: round; stroke-opacity: 1; stroke-miterlimit: 10; fill: none; stroke-width: 7.15908px; stroke: rgb(38, 50, 56);" d="M 203.121094 228.671875 C 203.121094 232.273438 197.71875 232.273438 197.71875 228.671875 C 197.71875 225.070312 203.121094 225.070312 203.121094 228.671875 "/>
    <path style="fill-rule: nonzero; fill-opacity: 1; stroke-linecap: round; stroke-linejoin: round; stroke-opacity: 1; stroke-miterlimit: 10; fill: none; stroke-width: 7.15908px; stroke: rgb(38, 50, 56);" d="M 186.300781 240.425781 C 186.300781 244.027344 180.902344 244.027344 180.902344 240.425781 C 180.902344 236.824219 186.300781 236.824219 186.300781 240.425781 "/>
    <path style="fill-rule: nonzero; fill-opacity: 1; stroke-linecap: round; stroke-linejoin: round; stroke-opacity: 1; stroke-miterlimit: 10; fill: none; stroke-width: 7.15908px; stroke: rgb(38, 50, 56);" d="M 170.457031 252.183594 C 170.457031 255.78125 165.058594 255.78125 165.058594 252.183594 C 165.058594 248.582031 170.457031 248.582031 170.457031 252.183594 "/>
    <path style="fill-rule: nonzero; fill-opacity: 1; stroke-linecap: round; stroke-linejoin: round; stroke-opacity: 1; stroke-miterlimit: 10; fill: none; stroke-width: 7.15908px; stroke: rgb(38, 50, 56);" d="M 155.691406 263.871094 C 155.691406 267.472656 150.292969 267.472656 150.292969 263.871094 C 150.292969 260.273438 155.691406 260.273438 155.691406 263.871094 "/>
    <path style="fill-rule: nonzero; fill-opacity: 1; stroke-linecap: round; stroke-linejoin: round; stroke-opacity: 1; stroke-miterlimit: 10; fill: none; stroke-width: 7.15908px; stroke: rgb(38, 50, 56);" d="M 142.089844 275.421875 C 142.089844 279.023438 136.691406 279.023438 136.691406 275.421875 C 136.691406 271.820312 142.089844 271.820312 142.089844 275.421875 "/>
    <path style="fill-rule: nonzero; fill-opacity: 1; stroke-linecap: round; stroke-linejoin: round; stroke-opacity: 1; stroke-miterlimit: 10; fill: none; stroke-width: 7.15908px; stroke: rgb(38, 50, 56);" d="M 129.714844 286.753906 C 129.714844 290.355469 124.316406 290.355469 124.316406 286.753906 C 124.316406 283.15625 129.714844 283.15625 129.714844 286.753906 "/>
    <path style="fill-rule: nonzero; fill-opacity: 1; stroke-linecap: round; stroke-linejoin: round; stroke-opacity: 1; stroke-miterlimit: 10; fill: none; stroke-width: 7.15908px; stroke: rgb(38, 50, 56);" d="M 118.609375 297.789062 C 118.609375 301.390625 113.210938 301.390625 113.210938 297.789062 C 113.210938 294.191406 118.609375 294.191406 118.609375 297.789062 "/>
    <path style="fill-rule: nonzero; fill-opacity: 1; stroke-linecap: round; stroke-linejoin: round; stroke-opacity: 1; stroke-miterlimit: 10; fill: none; stroke-width: 7.15908px; stroke: rgb(38, 50, 56);" d="M 108.804688 308.445312 C 108.804688 312.046875 103.40625 312.046875 103.40625 308.445312 C 103.40625 304.847656 108.804688 304.847656 108.804688 308.445312 "/>
    <path style="fill-rule: nonzero; fill-opacity: 1; stroke-linecap: round; stroke-linejoin: round; stroke-opacity: 1; stroke-miterlimit: 10; fill: none; stroke-width: 7.15908px; stroke: rgb(38, 50, 56);" d="M 100.3125 318.640625 C 100.3125 322.242188 94.914062 322.242188 94.914062 318.640625 C 94.914062 315.042969 100.3125 315.042969 100.3125 318.640625 "/>
    <path style="fill-rule: nonzero; fill-opacity: 1; stroke-linecap: round; stroke-linejoin: round; stroke-opacity: 1; stroke-miterlimit: 10; fill: none; stroke-width: 7.15908px; stroke: rgb(38, 50, 56);" d="M 93.128906 328.289062 C 93.128906 331.890625 87.726562 331.890625 87.726562 328.289062 C 87.726562 324.691406 93.128906 324.691406 93.128906 328.289062 "/>
    <path style="fill-rule: nonzero; fill-opacity: 1; stroke-linecap: round; stroke-linejoin: round; stroke-opacity: 1; stroke-miterlimit: 10; fill: none; stroke-width: 7.15908px; stroke: rgb(38, 50, 56);" d="M 87.234375 337.3125 C 87.234375 340.910156 81.835938 340.910156 81.835938 337.3125 C 81.835938 333.710938 87.234375 333.710938 87.234375 337.3125 "/>
    <path style="fill-rule: nonzero; fill-opacity: 1; stroke-linecap: round; stroke-linejoin: round; stroke-opacity: 1; stroke-miterlimit: 10; fill: none; stroke-width: 7.15908px; stroke: rgb(38, 50, 56);" d="M 82.605469 345.621094 C 82.605469 349.222656 77.203125 349.222656 77.203125 345.621094 C 77.203125 342.023438 82.605469 342.023438 82.605469 345.621094 "/>
    <path style="fill-rule: nonzero; fill-opacity: 1; stroke-linecap: round; stroke-linejoin: round; stroke-opacity: 1; stroke-miterlimit: 10; fill: none; stroke-width: 7.15908px; stroke: rgb(38, 50, 56);" d="M 79.191406 353.144531 C 79.191406 356.746094 73.789062 356.746094 73.789062 353.144531 C 73.789062 349.542969 79.191406 349.542969 79.191406 353.144531 "/>
    <path style="fill-rule: nonzero; fill-opacity: 1; stroke-linecap: round; stroke-linejoin: round; stroke-opacity: 1; stroke-miterlimit: 10; fill: none; stroke-width: 7.15908px; stroke: rgb(38, 50, 56);" d="M 76.933594 359.804688 C 76.933594 363.40625 71.535156 363.40625 71.535156 359.804688 C 71.535156 356.203125 76.933594 356.203125 76.933594 359.804688 "/>
    <path style="fill-rule: nonzero; fill-opacity: 1; stroke-linecap: round; stroke-linejoin: round; stroke-opacity: 1; stroke-miterlimit: 10; fill: none; stroke-width: 7.15908px; stroke: rgb(38, 50, 56);" d="M 75.769531 365.535156 C 75.769531 369.132812 70.371094 369.132812 70.371094 365.535156 C 70.371094 361.933594 75.769531 361.933594 75.769531 365.535156 "/>
    <path style="fill-rule: nonzero; fill-opacity: 1; stroke-linecap: round; stroke-linejoin: round; stroke-opacity: 1; stroke-miterlimit: 10; fill: none; stroke-width: 7.15908px; stroke: rgb(38, 50, 56);" d="M 75.617188 370.265625 C 75.617188 373.867188 70.21875 373.867188 70.21875 370.265625 C 70.21875 366.667969 75.617188 366.667969 75.617188 370.265625 "/>
    <path style="fill-rule: nonzero; fill-opacity: 1; stroke-linecap: round; stroke-linejoin: round; stroke-opacity: 1; stroke-miterlimit: 10; fill: none; stroke-width: 7.15908px; stroke: rgb(38, 50, 56);" d="M 76.386719 373.949219 C 76.386719 377.550781 70.988281 377.550781 70.988281 373.949219 C 70.988281 370.351562 76.386719 370.351562 76.386719 373.949219 "/>
    <path style="fill-rule: nonzero; fill-opacity: 1; stroke-linecap: round; stroke-linejoin: round; stroke-opacity: 1; stroke-miterlimit: 10; fill: none; stroke-width: 7.15908px; stroke: rgb(38, 50, 56);" d="M 77.984375 376.539062 C 77.984375 380.136719 72.585938 380.136719 72.585938 376.539062 C 72.585938 372.9375 77.984375 372.9375 77.984375 376.539062 "/>
    <path style="fill-rule: nonzero; fill-opacity: 1; stroke-linecap: round; stroke-linejoin: round; stroke-opacity: 1; stroke-miterlimit: 10; fill: none; stroke-width: 7.15908px; stroke: rgb(38, 50, 56);" d="M 80.300781 377.992188 C 80.300781 381.589844 74.902344 381.589844 74.902344 377.992188 C 74.902344 374.390625 80.300781 374.390625 80.300781 377.992188 "/>
    <path style="fill-rule: nonzero; fill-opacity: 1; stroke-linecap: round; stroke-linejoin: round; stroke-opacity: 1; stroke-miterlimit: 10; fill: none; stroke-width: 7.15908px; stroke: rgb(38, 50, 56);" d="M 83.234375 378.28125 C 83.234375 381.882812 77.835938 381.882812 77.835938 378.28125 C 77.835938 374.679688 83.234375 374.679688 83.234375 378.28125 "/>
    <path style="fill-rule: nonzero; fill-opacity: 1; stroke-linecap: round; stroke-linejoin: round; stroke-opacity: 1; stroke-miterlimit: 10; fill: none; stroke-width: 7.15908px; stroke: rgb(38, 50, 56);" d="M 86.671875 377.394531 C 86.671875 380.996094 81.273438 380.996094 81.273438 377.394531 C 81.273438 373.796875 86.671875 373.796875 86.671875 377.394531 "/>
    <path style="fill-rule: nonzero; fill-opacity: 1; stroke-linecap: round; stroke-linejoin: round; stroke-opacity: 1; stroke-miterlimit: 10; fill: none; stroke-width: 7.15908px; stroke: rgb(38, 50, 56);" d="M 90.507812 375.324219 C 90.507812 378.925781 85.109375 378.925781 85.109375 375.324219 C 85.109375 371.726562 90.507812 371.726562 90.507812 375.324219 "/>
    <path style="fill-rule: nonzero; fill-opacity: 1; stroke-linecap: round; stroke-linejoin: round; stroke-opacity: 1; stroke-miterlimit: 10; fill: none; stroke-width: 7.15908px; stroke: rgb(38, 50, 56);" d="M 94.636719 372.082031 C 94.636719 375.679688 89.238281 375.679688 89.238281 372.082031 C 89.238281 368.480469 94.636719 368.480469 94.636719 372.082031 "/>
    <path style="fill-rule: nonzero; fill-opacity: 1; stroke-linecap: round; stroke-linejoin: round; stroke-opacity: 1; stroke-miterlimit: 10; fill: none; stroke-width: 7.15908px; stroke: rgb(38, 50, 56);" d="M 98.960938 367.675781 C 98.960938 371.277344 93.558594 371.277344 93.558594 367.675781 C 93.558594 364.078125 98.960938 364.078125 98.960938 367.675781 "/>
    <path style="fill-rule: nonzero; fill-opacity: 1; stroke-linecap: round; stroke-linejoin: round; stroke-opacity: 1; stroke-miterlimit: 10; fill: none; stroke-width: 7.15908px; stroke: rgb(38, 50, 56);" d="M 103.386719 362.140625 C 103.386719 365.742188 97.988281 365.742188 97.988281 362.140625 C 97.988281 358.542969 103.386719 358.542969 103.386719 362.140625 "/>
    <path style="fill-rule: nonzero; fill-opacity: 1; stroke-linecap: round; stroke-linejoin: round; stroke-opacity: 1; stroke-miterlimit: 10; fill: none; stroke-width: 7.15908px; stroke: rgb(38, 50, 56);" d="M 107.839844 355.515625 C 107.839844 359.117188 102.4375 359.117188 102.4375 355.515625 C 102.4375 351.914062 107.839844 351.914062 107.839844 355.515625 "/>
    <path style="fill-rule: nonzero; fill-opacity: 1; stroke-linecap: round; stroke-linejoin: round; stroke-opacity: 1; stroke-miterlimit: 10; fill: none; stroke-width: 7.15908px; stroke: rgb(38, 50, 56);" d="M 112.246094 347.847656 C 112.246094 351.445312 106.847656 351.445312 106.847656 347.847656 C 106.847656 344.246094 112.246094 344.246094 112.246094 347.847656 "/>
    <path style="fill-rule: nonzero; fill-opacity: 1; stroke-linecap: round; stroke-linejoin: round; stroke-opacity: 1; stroke-miterlimit: 10; fill: none; stroke-width: 7.15908px; stroke: rgb(38, 50, 56);" d="M 116.558594 339.1875 C 116.558594 342.789062 111.160156 342.789062 111.160156 339.1875 C 111.160156 335.589844 116.558594 335.589844 116.558594 339.1875 "/>
    <path style="fill-rule: nonzero; fill-opacity: 1; stroke-linecap: round; stroke-linejoin: round; stroke-opacity: 1; stroke-miterlimit: 10; fill: none; stroke-width: 7.15908px; stroke: rgb(38, 50, 56);" d="M 120.738281 329.609375 C 120.738281 333.210938 115.335938 333.210938 115.335938 329.609375 C 115.335938 326.011719 120.738281 326.011719 120.738281 329.609375 "/>
    <path style="fill-rule: nonzero; fill-opacity: 1; stroke-linecap: round; stroke-linejoin: round; stroke-opacity: 1; stroke-miterlimit: 10; fill: none; stroke-width: 7.15908px; stroke: rgb(38, 50, 56);" d="M 124.761719 319.183594 C 124.761719 322.78125 119.359375 322.78125 119.359375 319.183594 C 119.359375 315.582031 124.761719 315.582031 124.761719 319.183594 "/>
    <path style="fill-rule: nonzero; fill-opacity: 1; stroke-linecap: round; stroke-linejoin: round; stroke-opacity: 1; stroke-miterlimit: 10; fill: none; stroke-width: 7.15908px; stroke: rgb(38, 50, 56);" d="M 128.625 307.984375 C 128.625 311.582031 123.226562 311.582031 123.226562 307.984375 C 123.226562 304.382812 128.625 304.382812 128.625 307.984375 "/>
    <path style="fill-rule: nonzero; fill-opacity: 1; stroke-linecap: round; stroke-linejoin: round; stroke-opacity: 1; stroke-miterlimit: 10; fill: none; stroke-width: 7.15908px; stroke: rgb(38, 50, 56);" d="M 132.347656 296.097656 C 132.347656 299.695312 126.949219 299.695312 126.949219 296.097656 C 126.949219 292.496094 132.347656 292.496094 132.347656 296.097656 "/>
    <path style="fill-rule: nonzero; fill-opacity: 1; stroke-linecap: round; stroke-linejoin: round; stroke-opacity: 1; stroke-miterlimit: 10; fill: none; stroke-width: 7.15908px; stroke: rgb(38, 50, 56);" d="M 135.960938 283.609375 C 135.960938 287.207031 130.5625 287.207031 130.5625 283.609375 C 130.5625 280.007812 135.960938 280.007812 135.960938 283.609375 "/>
    <path style="fill-rule: nonzero; fill-opacity: 1; stroke-linecap: round; stroke-linejoin: round; stroke-opacity: 1; stroke-miterlimit: 10; fill: none; stroke-width: 7.15908px; stroke: rgb(38, 50, 56);" d="M 139.519531 270.613281 C 139.519531 274.214844 134.121094 274.214844 134.121094 270.613281 C 134.121094 267.015625 139.519531 267.015625 139.519531 270.613281 "/>
    <path style="fill-rule: nonzero; fill-opacity: 1; stroke-linecap: round; stroke-linejoin: round; stroke-opacity: 1; stroke-miterlimit: 10; fill: none; stroke-width: 7.15908px; stroke: rgb(38, 50, 56);" d="M 143.09375 257.207031 C 143.09375 260.808594 137.695312 260.808594 137.695312 257.207031 C 137.695312 253.609375 143.09375 253.609375 143.09375 257.207031 "/>
    <path style="fill-rule: nonzero; fill-opacity: 1; stroke-linecap: round; stroke-linejoin: round; stroke-opacity: 1; stroke-miterlimit: 10; fill: none; stroke-width: 7.15908px; stroke: rgb(38, 50, 56);" d="M 146.78125 243.488281 C 146.78125 247.089844 141.382812 247.089844 141.382812 243.488281 C 141.382812 239.890625 146.78125 239.890625 146.78125 243.488281 "/>
    <path style="fill-rule: nonzero; fill-opacity: 1; stroke-linecap: round; stroke-linejoin: round; stroke-opacity: 1; stroke-miterlimit: 10; fill: none; stroke-width: 7.15908px; stroke: rgb(38, 50, 56);" d="M 150.699219 229.5625 C 150.699219 233.160156 145.296875 233.160156 145.296875 229.5625 C 145.296875 225.960938 150.699219 225.960938 150.699219 229.5625 "/>
    <path style="fill-rule: nonzero; fill-opacity: 1; stroke-linecap: round; stroke-linejoin: round; stroke-opacity: 1; stroke-miterlimit: 10; fill: none; stroke-width: 7.15908px; stroke: rgb(38, 50, 56);" d="M 154.976562 215.53125 C 154.976562 219.128906 149.578125 219.128906 149.578125 215.53125 C 149.578125 211.929688 154.976562 211.929688 154.976562 215.53125 "/>
    <path style="fill-rule: nonzero; fill-opacity: 1; stroke-linecap: round; stroke-linejoin: round; stroke-opacity: 1; stroke-miterlimit: 10; fill: none; stroke-width: 7.15908px; stroke: rgb(38, 50, 56);" d="M 159.78125 201.503906 C 159.78125 205.101562 154.378906 205.101562 154.378906 201.503906 C 154.378906 197.902344 159.78125 197.902344 159.78125 201.503906 "/>
    <path style="fill-rule: nonzero; fill-opacity: 1; stroke-linecap: round; stroke-linejoin: round; stroke-opacity: 1; stroke-miterlimit: 10; fill: none; stroke-width: 7.15908px; stroke: rgb(38, 50, 56);" d="M 165.28125 187.59375 C 165.28125 191.195312 159.878906 191.195312 159.878906 187.59375 C 159.878906 183.992188 165.28125 183.992188 165.28125 187.59375 "/>
    <path style="fill-rule: nonzero; fill-opacity: 1; stroke-linecap: round; stroke-linejoin: round; stroke-opacity: 1; stroke-miterlimit: 10; fill: none; stroke-width: 7.15908px; stroke: rgb(38, 50, 56);" d="M 171.675781 173.917969 C 171.675781 177.515625 166.273438 177.515625 166.273438 173.917969 C 166.273438 170.316406 171.675781 170.316406 171.675781 173.917969 "/>
    <path style="fill-rule: nonzero; fill-opacity: 1; stroke-linecap: round; stroke-linejoin: round; stroke-opacity: 1; stroke-miterlimit: 10; fill: none; stroke-width: 7.15908px; stroke: rgb(38, 50, 56);" d="M 179.167969 160.59375 C 179.167969 164.191406 173.769531 164.191406 173.769531 160.59375 C 173.769531 156.992188 179.167969 156.992188 179.167969 160.59375 "/>
    <path style="fill-rule: nonzero; fill-opacity: 1; stroke-linecap: round; stroke-linejoin: round; stroke-opacity: 1; stroke-miterlimit: 10; fill: none; stroke-width: 7.15908px; stroke: rgb(38, 50, 56);" d="M 187.972656 147.742188 C 187.972656 151.34375 182.574219 151.34375 182.574219 147.742188 C 182.574219 144.144531 187.972656 144.144531 187.972656 147.742188 "/>
    <path style="fill-rule: nonzero; fill-opacity: 1; stroke-linecap: round; stroke-linejoin: round; stroke-opacity: 1; stroke-miterlimit: 10; fill: none; stroke-width: 7.15908px; stroke: rgb(38, 50, 56);" d="M 198.289062 135.496094 C 198.289062 139.097656 192.886719 139.097656 192.886719 135.496094 C 192.886719 131.894531 198.289062 131.894531 198.289062 135.496094 "/>
    <path style="fill-rule: nonzero; fill-opacity: 1; stroke-linecap: round; stroke-linejoin: round; stroke-opacity: 1; stroke-miterlimit: 10; fill: none; stroke-width: 7.15908px; stroke: rgb(38, 50, 56);" d="M 210.292969 123.976562 C 210.292969 127.578125 204.890625 127.578125 204.890625 123.976562 C 204.890625 120.375 210.292969 120.375 210.292969 123.976562 "/>
    <path style="fill-rule: nonzero; fill-opacity: 1; stroke-linecap: round; stroke-linejoin: round; stroke-opacity: 1; stroke-miterlimit: 10; fill: none; stroke-width: 7.15908px; stroke: rgb(38, 50, 56);" d="M 224.105469 113.316406 C 224.105469 116.914062 218.707031 116.914062 218.707031 113.316406 C 218.707031 109.714844 224.105469 109.714844 224.105469 113.316406 "/>
    <path style="fill-rule: nonzero; fill-opacity: 1; stroke-linecap: round; stroke-linejoin: round; stroke-opacity: 1; stroke-miterlimit: 10; fill: none; stroke-width: 7.15908px; stroke: rgb(38, 50, 56);" d="M 239.777344 103.640625 C 239.777344 107.238281 234.378906 107.238281 234.378906 103.640625 C 234.378906 100.039062 239.777344 100.039062 239.777344 103.640625 "/>
    <path style="fill-rule: nonzero; fill-opacity: 1; stroke-linecap: round; stroke-linejoin: round; stroke-opacity: 1; stroke-miterlimit: 10; fill: none; stroke-width: 7.15908px; stroke: rgb(38, 50, 56);" d="M 257.234375 95.066406 C 257.234375 98.667969 251.832031 98.667969 251.832031 95.066406 C 251.832031 91.46875 257.234375 91.46875 257.234375 95.066406 "/>
    <path style="fill-rule: nonzero; fill-opacity: 1; stroke-linecap: round; stroke-linejoin: round; stroke-opacity: 1; stroke-miterlimit: 10; fill: none; stroke-width: 7.15908px; stroke: rgb(38, 50, 56);" d="M 276.257812 87.710938 C 276.257812 91.308594 270.859375 91.308594 270.859375 87.710938 C 270.859375 84.109375 276.257812 84.109375 276.257812 87.710938 "/>
    <path style="fill-rule: nonzero; fill-opacity: 1; stroke-linecap: round; stroke-linejoin: round; stroke-opacity: 1; stroke-miterlimit: 10; fill: none; stroke-width: 7.15908px; stroke: rgb(38, 50, 56);" d="M 296.472656 81.65625 C 296.472656 85.257812 291.070312 85.257812 291.070312 81.65625 C 291.070312 78.054688 296.472656 78.054688 296.472656 81.65625 "/>
    <path style="fill-rule: nonzero; fill-opacity: 1; stroke-linecap: round; stroke-linejoin: round; stroke-opacity: 1; stroke-miterlimit: 10; fill: none; stroke-width: 7.15908px; stroke: rgb(38, 50, 56);" d="M 317.320312 76.972656 C 317.320312 80.570312 311.921875 80.570312 311.921875 76.972656 C 311.921875 73.371094 317.320312 73.371094 317.320312 76.972656 "/>
    <path style="fill-rule: nonzero; fill-opacity: 1; stroke-linecap: round; stroke-linejoin: round; stroke-opacity: 1; stroke-miterlimit: 10; fill: none; stroke-width: 7.15908px; stroke: rgb(38, 50, 56);" d="M 338.113281 73.691406 C 338.113281 77.292969 332.710938 77.292969 332.710938 73.691406 C 332.710938 70.09375 338.113281 70.09375 338.113281 73.691406 "/>
    <path style="fill-rule: nonzero; fill-opacity: 1; stroke-linecap: round; stroke-linejoin: round; stroke-opacity: 1; stroke-miterlimit: 10; fill: none; stroke-width: 7.15908px; stroke: rgb(38, 50, 56);" d="M 358.054688 71.820312 C 358.054688 75.417969 352.65625 75.417969 352.65625 71.820312 C 352.65625 68.21875 358.054688 68.21875 358.054688 71.820312 "/>
    <path style="fill-rule: nonzero; fill-opacity: 1; stroke-linecap: round; stroke-linejoin: round; stroke-opacity: 1; stroke-miterlimit: 10; fill: none; stroke-width: 7.15908px; stroke: rgb(38, 50, 56);" d="M 376.347656 71.320312 C 376.347656 74.917969 370.949219 74.917969 370.949219 71.320312 C 370.949219 67.71875 376.347656 67.71875 376.347656 71.320312 "/>
    <path style="fill-rule: nonzero; fill-opacity: 1; stroke-linecap: round; stroke-linejoin: round; stroke-opacity: 1; stroke-miterlimit: 10; fill: none; stroke-width: 7.15908px; stroke: rgb(38, 50, 56);" d="M 392.25 72.128906 C 392.25 75.730469 386.851562 75.730469 386.851562 72.128906 C 386.851562 68.527344 392.25 68.527344 392.25 72.128906 "/>
    <path style="fill-rule: nonzero; fill-opacity: 1; stroke-linecap: round; stroke-linejoin: round; stroke-opacity: 1; stroke-miterlimit: 10; fill: none; stroke-width: 7.15908px; stroke: rgb(38, 50, 56);" d="M 405.160156 74.164062 C 405.160156 77.761719 399.757812 77.761719 399.757812 74.164062 C 399.757812 70.5625 405.160156 70.5625 405.160156 74.164062 "/>
    <path style="fill-rule: nonzero; fill-opacity: 1; stroke-linecap: round; stroke-linejoin: round; stroke-opacity: 1; stroke-miterlimit: 10; fill: none; stroke-width: 7.15908px; stroke: rgb(38, 50, 56);" d="M 414.640625 77.320312 C 414.640625 80.921875 409.238281 80.921875 409.238281 77.320312 C 409.238281 73.71875 414.640625 73.71875 414.640625 77.320312 "/>
    <path style="fill-rule: nonzero; fill-opacity: 1; stroke-linecap: round; stroke-linejoin: round; stroke-opacity: 1; stroke-miterlimit: 10; fill: none; stroke-width: 7.15908px; stroke: rgb(38, 50, 56);" d="M 420.457031 81.496094 C 420.457031 85.09375 415.058594 85.09375 415.058594 81.496094 C 415.058594 77.894531 420.457031 77.894531 420.457031 81.496094 "/>
  </g>
</svg>